<svg xmlns="http://www.w3.org/2000/svg" viewBox="0 0 360 820" role="img" aria-label="Front anatomical body outline">
  <defs>
    <linearGradient id="skin" x1="0" y1="0" x2="1" y2="1">
      <stop offset="0" stop-color="#c8d0db"/>
      <stop offset="1" stop-color="#7d8ca0"/>
    </linearGradient>
    <style>
      .body{fill:url(#skin);stroke:#d5dce6;stroke-width:3;stroke-linejoin:round;stroke-linecap:round;}
      .line{fill:none;stroke:#5f6f84;stroke-width:2.4;stroke-linecap:round;opacity:.7;}
      .soft{fill:#6f7f95;opacity:.18;}
    </style>
  </defs>
  <rect width="360" height="820" fill="none"/>
  <g transform="translate(0,10)">
    <path class="body" d="M180 45c-33 0-59 26-59 60 0 31 20 53 43 60v34c0 11 8 20 16 20s16-9 16-20v-34c23-7 43-29 43-60 0-34-26-60-59-60z"/>
    <path class="body" d="M122 210c-39 8-71 27-88 59-9 18-2 39 18 45 24 7 49-7 66-29l12-16c-2 42 0 90 10 122 13 18 67 18 80 0 10-32 12-80 10-122l12 16c17 22 42 36 66 29 20-6 27-27 18-45-17-32-49-51-88-59-18-4-36-6-58-6s-40 2-58 6z"/>
    <path class="body" d="M138 392c11 17 73 17 84 0 12 31 12 78-3 112-10 23-28 32-39 32s-29-9-39-32c-15-34-15-81-3-112z"/>
    <path class="body" d="M143 516c-24 22-39 67-39 122 0 32 13 49 32 49 24 0 35-28 39-63l5-73c-13-4-27-14-37-35z"/>
    <path class="body" d="M217 516c24 22 39 67 39 122 0 32-13 49-32 49-24 0-35-28-39-63l-5-73c13-4 27-14 37-35z"/>
    <path class="body" d="M131 684c-17 6-27 29-28 71 0 36 10 56 29 56 18 0 29-20 31-55 3-39 0-64-8-75-7 4-15 5-24 3z"/>
    <path class="body" d="M229 684c17 6 27 29 28 71 0 36-10 56-29 56-18 0-29-20-31-55-3-39 0-64 8-75 7 4 15 5 24 3z"/>
    <path class="body" d="M111 786c-16 12-28 30-32 49 16 13 58 11 76-7 2-16-4-31-15-43-8 7-19 8-29 1z" transform="translate(0,-30)"/>
    <path class="body" d="M249 786c16 12 28 30 32 49-16 13-58 11-76-7-2-16 4-31 15-43 8 7 19 8 29 1z" transform="translate(0,-30)"/>
    <path class="line" d="M104 260c31 30 121 30 152 0"/>
    <path class="line" d="M119 306c35 26 87 26 122 0"/>
    <path class="line" d="M134 353c26 18 66 18 92 0"/>
    <path class="line" d="M159 226c4 52 4 104-6 156"/>
    <path class="line" d="M201 226c-4 52-4 104 6 156"/>
    <path class="line" d="M146 545c-22 33-27 77-16 126"/>
    <path class="line" d="M214 545c22 33 27 77 16 126"/>
    <path class="line" d="M134 704c15 33 12 67 1 96"/>
    <path class="line" d="M226 704c-15 33-12 67-1 96"/>
  </g>
</svg>
